<svg xmlns="http://www.w3.org/2000/svg" xmlns:xlink="http://www.w3.org/1999/xlink" version="1.1" x="0px" y="0px" viewBox="0 0 48 60" enable-background="new 0 0 48 48" xml:space="preserve"><g><path d="M36.025,48H11.976c-4.958,0-8.992-4.981-8.992-11.105V36.18c0-0.553,0.448-1,1-1h40.032c0.553,0,1,0.447,1,1v0.715   C45.016,43.019,40.982,48,36.025,48z M4.987,37.18C5.103,42.069,8.194,46,11.976,46h24.049c3.781,0,6.871-3.931,6.987-8.82H4.987z"/><path d="M35.29,32.433c-0.485,0-0.96-0.09-1.41-0.269c-0.328-0.129-0.651-0.29-0.975-0.452c-0.755-0.38-1.427-0.704-2.063-0.486   c-0.116,0.041-0.221,0.121-0.396,0.261c-0.325,0.258-0.816,0.648-1.617,0.677l-0.18,0.003c-0.963,0-2.183-0.271-3.184-0.709   c-0.229-0.099-0.455-0.221-0.681-0.344c-0.411-0.225-0.768-0.43-1.048-0.36c-0.078,0.026-0.275,0.203-0.406,0.321   c-0.271,0.243-0.608,0.546-1.056,0.72c-0.358,0.139-0.749,0.208-1.163,0.208c-0.842,0-1.661-0.285-2.384-0.537   c-0.396-0.138-0.769-0.269-1.081-0.329c-0.424-0.083-1.213-0.043-1.782,0.012c-0.155,0.016-0.299,0.106-0.542,0.268   c-0.201,0.133-0.429,0.284-0.713,0.396c-0.542,0.212-1.11,0.315-1.739,0.315c-0.96,0-1.889-0.243-2.787-0.479   c-1.023-0.268-1.955-0.524-2.856-0.38c-0.286,0.046-0.575,0.109-0.866,0.174c-0.656,0.144-1.334,0.292-2.064,0.292l0,0   c-0.375,0-0.721-0.039-1.058-0.119c-1.598-0.38-3.629-2.248-3.174-4.308c0.025-0.114,0.07-0.224,0.133-0.322   c0.219-0.343,0.438-0.927,0.669-1.544c0.512-1.368,1.093-2.919,2.297-3.556c0.277-0.146,0.578-0.221,0.894-0.221   c0.571,0,1.054,0.24,1.441,0.433c0.137,0.068,0.324,0.162,0.402,0.179c0.28,0.063,0.282,0.202,0.948-0.476   c1.17-1.195,2.355-1.729,3.843-1.729c0.5,0,1.046,0.06,1.722,0.187l0.233,0.043c0.824,0.148,1.851,0.333,2.668,1.287   c0.358,0.419,0.591,0.907,0.816,1.378c0.193,0.405,0.394,0.824,0.619,1.042c0.157,0.152,0.277,0.194,0.561,0.194   c0.099,0,0.199-0.005,0.298-0.009c0.13-0.006,0.261-0.012,0.393-0.012c0.382,0,0.958,0.042,1.544,0.408   c0.295,0.183,0.536,0.449,0.769,0.706c0.039,0.043,0.085,0.095,0.134,0.146c0.022-0.14,0.04-0.28,0.053-0.384   c0.042-0.326,0.086-0.627,0.148-0.837c0.653-2.24,2.229-3.523,4.325-3.523c1.18,0,2.43,0.428,3.519,1.206   c0.686,0.489,0.917,1.391,1.122,2.188c0.027,0.106,0.06,0.231,0.094,0.355c0-0.001,0.001-0.002,0.001-0.003   c0.17-0.3,0.38-0.673,0.743-0.966c0.287-0.23,0.727-0.533,1.26-0.533c0.479,0,0.804,0.237,0.985,0.378   c0.106-0.131,0.246-0.274,0.437-0.42c0.291-0.224,0.745-0.52,1.324-0.52c0.641,0,1.12,0.351,1.541,0.729   c0.511,0.458,0.781,1.039,0.999,1.504c0.102,0.219,0.272,0.585,0.366,0.645c0.001,0,0.003,0,0.004,0   c0.532,0,1.166-0.576,1.727-1.084c0.285-0.26,0.566-0.513,0.842-0.721c0.807-0.61,1.913-1.311,3.316-1.311   c0.36,0,0.735,0.045,1.115,0.135c1.828,0.433,3.136,1.667,3.498,3.298c0.402,1.812-0.158,4.028-1.335,5.27   c-0.872,0.923-1.941,1.371-3.269,1.371c-0.783,0-1.558-0.151-2.306-0.299c-1.045-0.205-2.046-0.367-2.784-0.166   c-0.241,0.065-0.479,0.145-0.716,0.224C36.818,32.191,36.091,32.433,35.29,32.433z M31.291,29.148c0.967,0,1.787,0.412,2.512,0.776   c0.27,0.135,0.538,0.271,0.812,0.379c0.661,0.264,1.399,0.047,2.215-0.224c0.273-0.091,0.547-0.182,0.822-0.256   c1.109-0.303,2.474-0.105,3.693,0.133c0.685,0.135,1.332,0.262,1.921,0.262c0.779,0,1.322-0.223,1.816-0.746   c0.639-0.674,1.125-2.152,0.834-3.461c-0.267-1.203-1.371-1.635-2.006-1.786c-0.95-0.223-1.64-0.026-2.764,0.825   c-0.231,0.175-0.465,0.389-0.705,0.606c-0.788,0.716-1.769,1.606-3.021,1.606c-1.396-0.009-1.92-1.131-2.232-1.802   c-0.163-0.348-0.315-0.676-0.522-0.862c-0.1-0.089-0.169-0.145-0.216-0.179c-0.025,0.017-0.057,0.039-0.096,0.068   c-0.097,0.074-0.108,0.097-0.144,0.165c-0.096,0.188-0.389,0.756-1.25,0.756c-0.107,0-0.243-0.009-0.417-0.028   c-0.382-0.044-0.663-0.192-0.858-0.323c-0.063,0.071-0.159,0.24-0.231,0.368c-0.2,0.355-0.45,0.798-0.932,1.097   c-0.331,0.207-0.664,0.313-0.989,0.313h-0.001c-1.275,0-1.622-1.352-1.853-2.246c-0.09-0.35-0.24-0.936-0.369-1.076   c-0.72-0.511-1.578-0.814-2.334-0.814c-1.192,0-2.001,0.701-2.405,2.083c-0.039,0.133-0.058,0.325-0.084,0.532   c-0.103,0.795-0.218,1.695-0.909,2.146c-0.282,0.185-0.588,0.278-0.908,0.279c-0.841,0-1.417-0.636-1.836-1.1   c-0.11-0.122-0.277-0.306-0.345-0.353c-0.176-0.109-0.457-0.111-0.787-0.095c-0.13,0.006-0.259,0.011-0.388,0.011   c-0.504,0-1.255-0.078-1.954-0.758c-0.483-0.467-0.774-1.077-1.031-1.616c-0.177-0.371-0.344-0.721-0.531-0.939   c-0.338-0.394-0.77-0.488-1.503-0.62l-0.25-0.045c-0.55-0.104-0.979-0.152-1.351-0.152c-0.787,0-1.499,0.192-2.416,1.129   c-0.637,0.649-1.507,1.324-2.813,1.026c-0.313-0.069-0.602-0.213-0.857-0.34c-0.168-0.083-0.449-0.223-0.549-0.223   c-0.491,0.271-0.969,1.546-1.318,2.478c-0.237,0.633-0.462,1.234-0.739,1.725c-0.035,0.768,1.06,1.649,1.701,1.803   c0.184,0.044,0.378,0.064,0.595,0.064l0,0c0.513,0,1.058-0.119,1.635-0.246c0.33-0.072,0.657-0.144,0.979-0.194   c0.268-0.043,0.551-0.065,0.84-0.065c0.986,0,1.927,0.247,2.838,0.485c1.244,0.325,2.415,0.577,3.289,0.236   c0.086-0.034,0.209-0.116,0.339-0.202c0.335-0.223,0.794-0.526,1.452-0.591c0.745-0.073,1.72-0.111,2.363,0.016   c0.45,0.089,0.909,0.249,1.353,0.403c0.802,0.28,1.657,0.552,2.166,0.353c0.106-0.041,0.285-0.201,0.442-0.344   c0.315-0.282,0.707-0.634,1.253-0.771c0.199-0.05,0.403-0.075,0.607-0.075c0.754,0,1.383,0.343,1.889,0.619   c0.172,0.095,0.345,0.189,0.521,0.267c0.755,0.33,1.69,0.542,2.385,0.542l0.109-0.001c0.124-0.005,0.179-0.035,0.444-0.246   c0.228-0.181,0.54-0.428,0.982-0.582C30.545,29.212,30.917,29.148,31.291,29.148z"/><path d="M43.908,17.912H4.092c-0.318,0-0.617-0.151-0.805-0.407s-0.244-0.586-0.149-0.89C6.231,6.677,14.616,0,24,0   c1.672,0,3.358,0.218,5.013,0.648c0.027,0.005,0.055,0.01,0.082,0.017V0.664c0.028,0.007,0.057,0.016,0.086,0.027   c0.011,0.003,0.021,0.007,0.03,0.011c7.317,1.984,13.165,7.927,15.652,15.914c0.094,0.304,0.039,0.634-0.149,0.89   S44.227,17.912,43.908,17.912z M5.49,15.912h37.019c-2.48-6.612-7.704-11.648-13.893-13.3c-0.028-0.008-0.057-0.017-0.084-0.026   C26.978,2.191,25.481,2,24,2C15.907,2,8.618,7.536,5.49,15.912z"/></g><text x="0" y="63" fill="#000000" font-size="5px" font-weight="bold" font-family="'Helvetica Neue', Helvetica, Arial-Unicode, Arial, Sans-serif">Created by Creative Stall</text><text x="0" y="68" fill="#000000" font-size="5px" font-weight="bold" font-family="'Helvetica Neue', Helvetica, Arial-Unicode, Arial, Sans-serif">from the Noun Project</text></svg>