<svg xmlns:dc="http://purl.org/dc/elements/1.1/" xmlns:cc="http://creativecommons.org/ns#" xmlns:rdf="http://www.w3.org/1999/02/22-rdf-syntax-ns#" xmlns:svg="http://www.w3.org/2000/svg" xmlns="http://www.w3.org/2000/svg" version="1.1" viewBox="0 0 100.00001 125" xml:space="preserve" x="0px" y="0px"><path d="m 47.84375,10.78125 c -7.306318,0.119356 -14.545659,1.343494 -21,3.65625 C 16.516787,18.137871 8.1813285,24.641068 5.125,33.84375 A 0.6924636,0.6924636 0 0 0 5.09375,34.0625 c 0,0 -0.066732,3.893647 -0.09375,8.21875 -0.026789,4.288539 -0.016254,8.940292 0.09375,10.78125 -0.00176,0.02514 0.00176,0.03666 0,0.0625 -0.09283,2.535471 1.0693502,5.129119 2.78125,7.59375 1.7288802,2.489241 4.053982,4.879764 6.375,6.96875 4.641931,4.177974 9.3125,7.15625 9.3125,7.15625 a 0.6924636,0.6924636 0 0 0 1.0625,-0.5625 l 0,-19.46875 a 0.6924636,0.6924636 0 0 0 -0.34375,-0.59375 c 0,0 -2.588292,-1.517927 -5.3125,-4.03125 C 16.295098,47.720584 13.578531,44.300903 13,40.65625 18.482236,29.78382 33.887541,24.722187 49.46875,25.0625 65.035863,25.40334 80.565356,31.179073 86.25,41.15625 c -0.903024,1.983166 -2.326032,3.851092 -4.15625,5.5625 -5.581675,5.219476 -14.747574,8.847206 -22.4375,9.875 l 0,-8.25 a 0.6924636,0.6924636 0 0 0 -1.03125,-0.625 l -29.84375,16.875 A 0.6924636,0.6924636 0 0 0 28.6875,65.75 l 29.84375,23.3125 a 0.6924636,0.6924636 0 0 0 1.125,-0.53125 l 0,-8.53125 C 73.56722,77.144958 86.549073,71.920616 92,60.28125 A 0.6924636,0.6924636 0 0 0 92,60.25 C 97.233643,45.978831 95.20778,34.743209 88.9375,26.6875 82.667258,18.630912 72.274648,13.751584 60.90625,11.78125 c -3.996777,-0.692402 -8.106957,-1.019864 -12.21875,-1 -0.274113,0 -0.56976,-0.0036 -0.84375,0 z m 35.1875,15.90625 c 2.215107,2.312756 6.652084,8.254174 3.71875,14.1875 1.556456,-4.257603 0.766363,-9.076481 -3.71875,-14.1875 z M 89.8125,45 c 2.261005,10.209559 -1.033392,17.588434 -7.21875,22.6875 -6.519347,5.374341 -16.336704,8.121933 -26.25,8.46875 a 0.6924636,0.6924636 0 0 0 -0.6875,0.71875 l 0,3.78125 -20.0625,-15.375 20.0625,-10.59375 0,5.3125 A 0.6924636,0.6924636 0 0 0 56.375,60.6875 C 72.020123,60.532988 83.770632,55.094071 89.8125,45 z" transform="translate(0,-5e-6)" style="text-indent:0;text-transform:none;direction:ltr;block-progression:tb;baseline-shift:baseline;color:#000000;enable-background:accumulate;" fill="#000000" fill-opacity="1" fill-rule="evenodd" stroke="none" marker="none" visibility="visible" display="inline" overflow="visible"/><text x="0" y="115" fill="#000000" font-size="5px" font-weight="bold" font-family="'Helvetica Neue', Helvetica, Arial-Unicode, Arial, Sans-serif">Created by Aha-Soft</text><text x="0" y="120" fill="#000000" font-size="5px" font-weight="bold" font-family="'Helvetica Neue', Helvetica, Arial-Unicode, Arial, Sans-serif">from the Noun Project</text></svg>