<svg xmlns="http://www.w3.org/2000/svg" xmlns:xlink="http://www.w3.org/1999/xlink" version="1.0" x="0px" y="0px" viewBox="0 0 50 62.5" enable-background="new 0 0 50 50" xml:space="preserve"><path fill="#000000" d="M43.063,14.358c-1.393-1.486-2.82-2.819-4.553-3.997c0.338-0.589,0.606-1.225,0.669-1.905  c0.061-1.022-0.123-2.022-0.627-3c-0.441-0.857-1.001-1.529-1.713-2.016c0.037-0.146,0.066-0.298,0.066-0.455  c0-1.055-0.851-1.909-1.905-1.909s-1.907,0.854-1.907,1.909c0,1.055,0.855,1.909,1.91,1.909c0.59,0,1.117-0.267,1.468-0.688  c0.761,1.146,1.144,2.281,1.144,3.403c0,0.619-0.123,1.238-0.371,1.857c-3.775-2.11-7.736-3.166-11.88-3.166  c-4.179,0-8.123,1.039-11.836,3.119c-0.247-0.619-0.371-1.255-0.371-1.904c0-1.293,0.385-2.416,1.149-3.373  c0.349,0.455,0.896,0.751,1.515,0.751c1.055,0,1.909-0.854,1.909-1.909c0-1.055-0.854-1.909-1.909-1.909s-1.908,0.854-1.908,1.909  c0,0.188,0.027,0.369,0.078,0.541l-0.614,0.652c-0.833,0.867-1.328,1.501-1.482,1.906c-0.247,0.652-0.37,1.301-0.37,1.952  c0,0.775,0.188,1.518,0.563,2.231c-1.702,1.146-3.299,2.51-4.693,4.09C11.88,19.379,17,22.79,24,23.101v1.848  c-2,0.525-3.6,1.631-4.903,4.012c-1.241,2.225-1.491,4.639-1.491,6.554c0,2.101,0.733,3.771,2.237,5.005  C19.044,41.846,19,42.611,19,44.503v0.723c0,0.071-0.191,0.107-0.638,0.107c-1.303,0-2.665,0.297-4.113,0.889  C12.387,47.001,11.473,48,11.473,49h10.699c-0.037,0-0.13-1.067-0.276-1.44c-0.296-0.479-0.601-0.985-0.914-1.524  c-0.313-0.533-0.468-1.06-0.468-1.577c0-1.666-0.212-2.195,0.59-3.182c1.269,0.682,2.69,1.021,4.269,1.021  c1.485,0,2.846-0.308,4.083-0.928c0.805,0.993,0.557,1.53,0.557,3.167c0,0.486-0.074,0.875-0.223,1.174  c-0.262,0.519-0.531,1.039-0.809,1.563C28.701,47.792,28.563,49,28.563,49h10.699c0-1-0.902-1.64-2.711-2.42  C35.076,45.984,33.693,46,32.402,46H31v-1.514c0-2.001,0.235-2.712-0.57-3.886c1.592-1.296,2.505-2.994,2.505-5.094  c0-1.943-0.821-4.553-2.028-6.775C29.607,26.416,28,25.505,26,24.948v-1.848C33,22.853,38.443,19.442,43.063,14.358z M25.93,9.46  c2.042,0,3.066,1.024,3.066,3.068c0,2.047-1.023,3.07-3.066,3.07c-2.082,0-3.124-1.023-3.124-3.07  C22.806,10.484,23.848,9.46,25.93,9.46z M25.368,20.3c-2.014,0-3.879-0.172-5.521-0.514C17.309,19.291,16,18.513,16,17.456v-0.281  c0,0.586,1.39,0.889,3.134,1.305c1.744,0.415,4.009-0.164,6.542-0.164c1.574,0,3.458,0.625,5.155,0.378  c2.533-0.369,3.23-0.79,3.816-1.378l0.053,0.141c0,0.621-0.208,1.298-0.981,1.67C31.862,20.027,28.959,20.3,25.368,20.3z   M25.843,13.415c0.577,0,0.866-0.29,0.866-0.869c0-0.576-0.289-0.863-0.866-0.863c-0.578,0-0.866,0.287-0.866,0.863  C24.977,13.125,25.265,13.415,25.843,13.415z"/><text x="0" y="65" fill="#000000" font-size="5px" font-weight="bold" font-family="'Helvetica Neue', Helvetica, Arial-Unicode, Arial, Sans-serif">Created by Mister Pixel</text><text x="0" y="70" fill="#000000" font-size="5px" font-weight="bold" font-family="'Helvetica Neue', Helvetica, Arial-Unicode, Arial, Sans-serif">from the Noun Project</text></svg>