<svg xmlns:dc="http://purl.org/dc/elements/1.1/" xmlns:cc="http://creativecommons.org/ns#" xmlns:rdf="http://www.w3.org/1999/02/22-rdf-syntax-ns#" xmlns:svg="http://www.w3.org/2000/svg" xmlns="http://www.w3.org/2000/svg" xmlns:sodipodi="http://sodipodi.sourceforge.net/DTD/sodipodi-0.dtd" xmlns:inkscape="http://www.inkscape.org/namespaces/inkscape" version="1.1" x="0px" y="0px" viewBox="0 0 62.960903 124.99999000000001"><g transform="translate(-317.29418,-409.43266)"><path style="" d="m 344.31294,409.43322 c -2.14468,-0.0126 -4.49584,0.18347 -7.66,1.19038 -7.81365,2.37141 -20.19345,2.41024 -19.31438,3.54468 0.82064,1.43549 12.88336,2.95584 16.99786,13.24156 -8.33215,36.64589 -8.75257,70.18328 -7.87393,82.22493 l 53.30109,-0.20211 0,-1.0959 c 2.49233,-30.41667 -4.78537,-52.25421 -15.23686,-71.30563 l -4.76908,-9.16781 c -1.84315,-7.32728 -8.74969,-17.78895 -12.59157,-18.33941 -0.94576,-0.0348 -1.87828,-0.085 -2.85313,-0.0907 z m -6.00859,2.5357 c 1.04654,0 1.89327,0.4386 1.89327,0.97875 0,0.54015 -0.69179,1.28486 -1.73833,1.28486 -1.04654,0 -2.05199,-0.74471 -2.05199,-1.28486 0,-0.54015 0.85052,-0.97875 1.89705,-0.97875 z m -11.93025,3.03452 c 1.51862,-0.026 8.00077,1.26157 7.46728,1.60984 -0.37475,0.22796 -6.75056,-1.14465 -7.70157,-1.58717 0.0536,-0.0141 0.13305,-0.0209 0.23429,-0.0227 z m 27.63949,4.66704 c 1.89493,0.18402 4.92356,5.90089 4.2778,10.14657 -0.96588,2.98107 -2.90774,2.84255 -5.50219,0.6122 -4.3307,-2.06566 -9.03879,-1.19072 -9.41345,0.24563 -0.14957,0.76031 4.567,3.62863 5.5022,5.25657 1.38171,1.90178 5.74033,25.45578 6.23532,29.58565 1.2296,3.99654 -5.23065,20.31804 -5.43796,24.36311 -0.66675,6.50237 -1.46614,14.07082 -0.47615,18.63952 l -21.90081,-0.0302 c -1.33912,-34.27526 5.51529,-69.163 7.98123,-80.71487 4.51915,0.56629 8.46443,0.86135 12.0112,0.45527 3.05022,-0.29656 5.28943,-8.51241 6.72281,-8.5594 z m -14.70781,10.18058 c -0.37516,0.006 -0.75074,0.036 -1.12235,0.15116 -0.52974,0.17874 -1.03988,0.64714 -1.03922,0.78225 0.009,0.18983 0.53949,0.61107 0.92963,0.58196 0.79241,-0.10238 1.94819,-0.0731 2.14646,-0.20406 0.213,-0.11767 0.53415,-0.14279 0.6651,-0.38168 0.0697,-0.20882 -0.0784,-0.40939 -0.20784,-0.55929 -0.25335,-0.26902 -0.63387,-0.39006 -0.99766,-0.37034 -0.12564,-0.001 -0.24906,-0.002 -0.37412,0 z" fill="#000000" fill-opacity="1" stroke="none"/></g><text x="0" y="114.999992" fill="#000000" font-size="5px" font-weight="bold" font-family="'Helvetica Neue', Helvetica, Arial-Unicode, Arial, Sans-serif">Created by Felipe Perucho</text><text x="0" y="119.999992" fill="#000000" font-size="5px" font-weight="bold" font-family="'Helvetica Neue', Helvetica, Arial-Unicode, Arial, Sans-serif">from the Noun Project</text></svg>